<svg width="34" height="34" viewBox="0 0 34 34" fill="none" xmlns="http://www.w3.org/2000/svg">
<g clip-path="url(#clip0_3_73)">
<path d="M17.17 18.105C17.0708 18.0908 16.9433 18.0908 16.83 18.105C14.3367 18.02 12.3533 15.98 12.3533 13.4725C12.3533 10.9083 14.4217 8.82581 17 8.82581C19.5642 8.82581 21.6467 10.9083 21.6467 13.4725C21.6325 15.98 19.6633 18.02 17.17 18.105Z" stroke="black" stroke-width="1.5" stroke-linecap="round" stroke-linejoin="round"/>
<path d="M26.5483 27.455C24.0267 29.7642 20.6833 31.1667 17 31.1667C13.3167 31.1667 9.97333 29.7642 7.45166 27.455C7.59333 26.1234 8.44333 24.82 9.95916 23.8C13.8408 21.2217 20.1875 21.2217 24.0408 23.8C25.5567 24.82 26.4067 26.1234 26.5483 27.455Z" stroke="black" stroke-width="1.5" stroke-linecap="round" stroke-linejoin="round"/>
<path d="M17 31.1666C24.824 31.1666 31.1666 24.824 31.1666 17C31.1666 9.17595 24.824 2.83331 17 2.83331C9.17595 2.83331 2.83331 9.17595 2.83331 17C2.83331 24.824 9.17595 31.1666 17 31.1666Z" stroke="black" stroke-width="1.5" stroke-linecap="round" stroke-linejoin="round"/>
</g>
<defs>
<clipPath id="clip0_3_73">
<rect width="34" height="34" fill="white"/>
</clipPath>
</defs>
</svg>
